<?xml version="1.0" encoding="UTF-8" standalone="no"?>
<svg
   fill="#ffffff"
   id="header_cart"
   x="0px"
   y="0px"
   width="30"
   height="30"
   viewBox="0 0 10.772 8.788"
   enable-background="new 0 0 10.772 8.788"
   xml:space="preserve"
   version="1.1"
   xmlns="http://www.w3.org/2000/svg"
   xmlns:svg="http://www.w3.org/2000/svg"><defs
   id="defs325" />
<path
   d="m 4.038,7.846 c 0,-0.483 0.393,-0.876 0.877,-0.876 0.484,0 0.878,0.393 0.878,0.876 0,0.486 -0.394,0.877 -0.878,0.877 -0.484,0 -0.877,-0.39 -0.877,-0.877 z"
   id="path316"
   style="fill:#ffffff" />
<path
   d="m 7.238,7.846 c 0,-0.483 0.393,-0.876 0.879,-0.876 0.48,0 0.873,0.393 0.873,0.876 0,0.486 -0.393,0.877 -0.873,0.877 -0.487,0 -0.879,-0.39 -0.879,-0.877 z"
   id="path318"
   style="fill:#ffffff" />
<path
   d="M 10.255,2.024 H 9.587 L 8.345,4.809 4.813,4.805 3.461,1.392 3.12,0.694 C 2.996,0.351 2.8,0.063 2.454,0.063 H 0.75 c -0.348,0 -0.646,0.255 -0.662,0.568 -0.017,0.312 0.256,0.57 0.604,0.57 H 1.43 c 0.35,0 0.738,0.265 0.863,0.59 l 1.502,3.867 c 0.127,0.322 0.512,0.59 0.863,0.59 h 3.799 c 0.35,0 0.748,-0.262 0.881,-0.584 L 10.637,2.608 C 10.775,2.286 10.601,2.024 10.255,2.024 Z"
   id="path320"
   style="fill:#ffffff" />
</svg>
